{"title":"BBC Proms 2011_38 Film Music Night","uid":6606323,"size":5022439832,"categoryP":"video","categoryS":"music_videos","magnet":"?xt=urn:btih:1506a3cf00805f613bf85217c030fcfb437eae2d&amp;dn=BBC+Proms+2011_38+Film+Music+Night&amp;tr=udp%3A%2F%2Ftracker.openbittorrent.com%3A80&amp;tr=udp%3A%2F%2Fopen.demonii.com%3A1337&amp;tr=udp%3A%2F%2Ftracker.coppersurfer.tk%3A6969&amp;tr=udp%3A%2F%2Fexodus.desync.com%3A6969","seeders":1,"leechers":1,"uploader":"Hathor","files":4,"time":1313368109,"description":"Note: This torrent contains both a DVD ISO and an MP4 Video of the concert so I suggest you select whichever you prefer.\n\n\nBBC Proms 2011, Number 38, Film Music\nBroadcast on BBC4 on 12 August \nThanks to GringoLoco &amp; the BBC  \n\nHerrmann:\nMusic from The Man Who Knew Too Much, Citizen Kane, and Psycho (18 mins)\n\nEnnio Morricone:\nCinema Paradiso - theme (7 mins)\n\nWalton:\nHenry V - suite (arr. Muir Mathieson) (21 mins)\nRory Kinnear: narrator\n\nJohn Williams:\nMusic from Star Wars, Schindler's List and Harry Potter (14 mins)\n\nJonny Greenwood:\nNorwegian Wood - suite (arr. Robert Ziegler) (10 mins)\n\nBBC Commission, World Premiere\nSir Richard Rodney Bennett:\nMurder on the Orient Express - suite (8 mins)\n\nBarry:\nOut of Africa - Love Theme (7 mins)\n\nVarious:\nMusic from the James Bond films (10 mins)\n\nEncore - Morricone: The good, the bad and the ugly\n\nChloÃƒÂ« Hanslip: violin\nBBC Concert Orchestra\nKeith Lockhart: conductor\n\n*********************************************************\n\nFormat: DVD PAL ISO 16:9\nRuntime: 1:57 (Interval cut)\n\nVideo\nID                               : 224 (0xE0)\nFormat                           : MPEG Video\nFormat version                   : Version 2\nFormat profile                   : Main@Main\nFormat settings, BVOP            : Yes\nFormat settings, Matrix          : Default\nBit rate mode                    : Variable\nBit rate                         : 3 487 Kbps\nNominal bit rate                 : 9 544 Kbps\nWidth                            : 720 pixels\nHeight                           : 576 pixels\nDisplay aspect ratio             : 16:9\nFrame rate                       : 25.000 fps\nStandard                         : PAL\nColor space                      : YUV\nChroma subsampling               : 4:2:0\nBit depth                        : 8 bits\nScan type                        : Interlaced\nScan order                       : Top Field First\nCompression mode                 : Lossy\nBits/(Pixel*Frame)               : 0.336\n\nAudio\nID                               : 192 (0xC0)\nFormat                           : MPEG Audio\nFormat version                   : Version 1\nFormat profile                   : Layer 2\nBit rate mode                    : Constant\nBit rate                         : 256 Kbps\nChannel(s)                       : 2 channels\nSampling rate                    : 48.0 KHz\nCompression mode                 : Lossy\n\n******************************************************\n\nFormat: MP4 468p\nRuntime: 2:11\n\nFormat                           : MPEG-4\nFormat profile                   : Base Media\nCodec ID                         : isom\nFile size                        : 1.38 GiB\nDuration                         : 2h 11mn\nOverall bit rate                 : 1 503 Kbps\nWriting application              : Lavf52.93.0\n\nVideo\nID                               : 1\nFormat                           : AVC\nFormat/Info                      : Advanced Video Codec\nFormat profile                   : &lt;a class=&quot;__cf_email__&quot; href=&quot;/cdn-cgi/l/email-protection&quot; data-cfemail=&quot;a2efc3cbcce2ee918c92&quot;&gt;[email&amp;#160;protected]&lt;/a&gt;&lt;script cf-hash='f9e31' type=&quot;text/javascript&quot;&gt;\n/* &lt;![CDATA[ */!function(){try{var t=&quot;currentScript&quot;in document?document.currentScript:function(){for(var t=document.getElementsByTagName(&quot;script&quot;),e=t.length;e--;)if(t[e].getAttribute(&quot;cf-hash&quot;))return t[e]}();if(t&amp;&amp;t.previousSibling){var e,r,n,i,c=t.previousSibling,a=c.getAttribute(&quot;data-cfemail&quot;);if(a){for(e=&quot;&quot;,r=parseInt(a.substr(0,2),16),n=2;a.length-n;n+=2)i=parseInt(a.substr(n,2),16)^r,e+=String.fromCharCode(i);e=document.createTextNode(e),c.parentNode.replaceChild(e,c)}}}catch(u){}}();/* ]]&gt; */&lt;/script&gt;\nFormat settings, CABAC           : Yes\nFormat settings, ReFrames        : 4 frames\nCodec ID                         : avc1\nCodec ID/Info                    : Advanced Video Coding\nDuration                         : 2h 11mn\nBit rate mode                    : Constant\nBit rate                         : 1 404 Kbps\nWidth                            : 832 pixels\nHeight                           : 468 pixels\nDisplay aspect ratio             : 16:9\nFrame rate mode                  : Constant\nFrame rate                       : 25.000 fps\nStandard                         : PAL\nColor space                      : YUV\nChroma subsampling               : 4:2:0\nBit depth                        : 8 bits\nScan type                        : Progressive\nBits/(Pixel*Frame)               : 0.144\nStream size                      : 1.28 GiB (93%)\n\nAudio\nID                               : 2\nFormat                           : AAC\nFormat/Info                      : Advanced Audio Codec\nFormat profile                   : HE-AAC / LC\nCodec ID                         : 40\nDuration                         : 2h 11mn\nBit rate mode                    : Variable\nBit rate                         : 96.0 Kbps\nChannel(s)                       : 2 channels\nChannel positions                : Front: L R\nSampling rate                    : 48.0 KHz / 24.0 KHz\nCompression mode                 : Lossy\nStream size                      : 88.9 MiB (6%)\n","torrent":{"xt":"urn:btih:1506a3cf00805f613bf85217c030fcfb437eae2d","amp;dn":"BBC+Proms+2011_38+Film+Music+Night","amp;tr":["udp%3A%2F%2Ftracker.openbittorrent.com%3A80","udp%3A%2F%2Fopen.demonii.com%3A1337","udp%3A%2F%2Ftracker.coppersurfer.tk%3A6969","udp%3A%2F%2Fexodus.desync.com%3A6969"],"infoHash":"1506a3cf00805f613bf85217c030fcfb437eae2d","infoHashBuffer":{"type":"Buffer","data":[21,6,163,207,0,128,95,97,59,248,82,23,192,48,252,251,67,126,174,45]},"announce":[],"urlList":[]}}